<svg width="625" height="228" viewBox="0 0 625 228" fill="none" xmlns="http://www.w3.org/2000/svg">
<g clip-path="url(#clip0_2_109)">
<g clip-path="url(#clip1_2_109)">
<path d="M137.41 50.8402C137.41 55.444 133.816 58.8365 129.406 58.8365C124.995 58.8365 121.402 55.444 121.402 50.8402C121.402 46.2039 124.995 42.8439 129.406 42.8439C133.816 42.8439 137.41 46.2039 137.41 50.8402ZM133.906 50.8402C133.906 47.9632 131.823 45.9948 129.406 45.9948C126.988 45.9948 124.905 47.9632 124.905 50.8402C124.905 53.6883 126.988 55.6856 129.406 55.6856C131.823 55.6856 133.906 53.6847 133.906 50.8402Z" fill="#EA4335"/>
<path d="M154.679 50.8402C154.679 55.444 151.085 58.8365 146.675 58.8365C142.264 58.8365 138.671 55.444 138.671 50.8402C138.671 46.2075 142.264 42.8439 146.675 42.8439C151.085 42.8439 154.679 46.2039 154.679 50.8402ZM151.175 50.8402C151.175 47.9632 149.092 45.9948 146.675 45.9948C144.257 45.9948 142.174 47.9632 142.174 50.8402C142.174 53.6883 144.257 55.6856 146.675 55.6856C149.092 55.6856 151.175 53.6847 151.175 50.8402Z" fill="#FBBC05"/>
<path d="M171.225 43.327V57.6828C171.225 63.5881 167.75 66 163.642 66C159.775 66 157.447 63.4079 156.57 61.288L159.62 60.0154C160.163 61.3169 161.494 62.8527 163.638 62.8527C166.268 62.8527 167.898 61.2267 167.898 58.1659V57.0159H167.775C166.991 57.9857 165.48 58.8329 163.574 58.8329C159.584 58.8329 155.929 55.3503 155.929 50.869C155.929 46.3553 159.584 42.8439 163.574 42.8439C165.477 42.8439 166.987 43.6911 167.775 44.632H167.898V43.3306H171.225V43.327ZM168.146 50.869C168.146 48.0534 166.272 45.9948 163.887 45.9948C161.469 45.9948 159.444 48.0534 159.444 50.869C159.444 53.6558 161.469 55.6856 163.887 55.6856C166.272 55.6856 168.146 53.6558 168.146 50.869Z" fill="#4285F4"/>
<path d="M176.712 34.9128V58.3465H173.294V34.9128H176.712Z" fill="#34A853"/>
<path d="M190.029 53.4717L192.749 55.2887C191.871 56.5902 189.756 58.8326 186.101 58.8326C181.568 58.8326 178.183 55.3211 178.183 50.8363C178.183 46.081 181.597 42.84 185.709 42.84C189.849 42.84 191.875 46.1423 192.537 47.9269L192.9 48.8354L182.234 53.2626C183.051 54.8669 184.32 55.6853 186.101 55.6853C187.885 55.6853 189.123 54.8056 190.029 53.4717ZM181.658 50.5947L188.788 47.6277C188.396 46.629 187.216 45.9332 185.828 45.9332C184.047 45.9332 181.568 47.5087 181.658 50.5947Z" fill="#EA4335"/>
<path d="M108.466 48.7596V45.3672H119.873C119.984 45.9584 120.042 46.6578 120.042 47.4149C120.042 49.9602 119.347 53.1075 117.11 55.3499C114.934 57.6212 112.153 58.8325 108.469 58.8325C101.641 58.8325 95.9 53.2589 95.9 46.4163C95.9 39.5736 101.641 34 108.469 34C112.246 34 114.937 35.4853 116.959 37.4213L114.57 39.8152C113.12 38.4524 111.156 37.3925 108.466 37.3925C103.48 37.3925 99.5801 41.4195 99.5801 46.4163C99.5801 51.4131 103.48 55.4401 108.466 55.4401C111.7 55.4401 113.541 54.1386 114.721 52.9561C115.678 51.9971 116.308 50.6271 116.556 48.756L108.466 48.7596Z" fill="#4285F4"/>
</g>
</g>
<g clip-path="url(#clip2_2_109)">
<g clip-path="url(#clip3_2_109)">
<path d="M269.658 35.7453L286.922 34.4711C289.042 34.2888 289.587 34.4109 290.92 35.381L296.431 39.263C297.34 39.9306 297.643 40.1123 297.643 40.8401V62.1315C297.643 63.4659 297.158 64.2551 295.463 64.3758L275.414 65.5892C274.141 65.65 273.535 65.4682 272.868 64.6184L268.81 59.3412C268.083 58.3698 267.78 57.6431 267.78 56.7928V37.8675C267.78 36.7763 268.265 35.8661 269.658 35.7453Z" fill="white"/>
<path fill-rule="evenodd" clip-rule="evenodd" d="M286.922 34.4711L269.658 35.7453C268.265 35.8661 267.78 36.7763 267.78 37.8675V56.7928C267.78 57.6431 268.083 58.3698 268.81 59.3412L272.868 64.6184C273.535 65.4682 274.141 65.65 275.414 65.5892L295.463 64.3758C297.158 64.2551 297.643 63.4659 297.643 62.1315V40.8401C297.643 40.1503 297.371 39.951 296.568 39.3637C296.524 39.3313 296.478 39.2978 296.431 39.263L290.92 35.381C289.587 34.4109 289.042 34.2888 286.922 34.4711ZM275.868 40.4908C274.231 40.6016 273.859 40.6268 272.93 39.8699L270.566 37.9896C270.325 37.7464 270.446 37.4431 271.051 37.3829L287.648 36.1697C289.04 36.0481 289.767 36.5341 290.312 36.9585L293.159 39.0211C293.28 39.0815 293.583 39.445 293.219 39.445L276.079 40.4766C276.008 40.4814 275.938 40.486 275.871 40.4906L275.869 40.4907L275.868 40.4908ZM273.959 61.9492V43.8736C273.959 43.0852 274.201 42.7209 274.927 42.6597L294.612 41.5076C295.28 41.447 295.582 41.8719 295.582 42.6597V60.6141C295.582 61.4032 295.46 62.0714 294.37 62.1315L275.533 63.224C274.443 63.2841 273.959 62.9207 273.959 61.9492ZM292.554 44.8432C292.675 45.3896 292.554 45.9356 292.008 45.997L291.1 46.1783V59.5229C290.312 59.9473 289.586 60.1901 288.98 60.1901C288.011 60.1901 287.768 59.8866 287.042 58.9772L281.105 49.6358V58.6739L282.984 59.0988C282.984 59.0988 282.984 60.1901 281.468 60.1901L277.29 60.433C277.168 60.1901 277.29 59.584 277.714 59.4625L278.804 59.1597V47.2098L277.29 47.0882C277.169 46.5418 277.471 45.7538 278.32 45.6927L282.802 45.3899L288.98 54.8527V46.4815L287.405 46.3003C287.284 45.6323 287.768 45.1472 288.374 45.0871L292.554 44.8432Z" fill="#000008"/>
<path d="M338.336 56.5015H336.266V47.336H338.336V56.5015Z" fill="#151A20"/>
<path d="M338.537 44.5712C338.537 45.2666 337.984 45.8195 337.297 45.8195C336.618 45.8195 336.057 45.2666 336.057 44.5712C336.057 43.8758 336.618 43.3145 337.297 43.3145C337.984 43.3145 338.537 43.8758 338.537 44.5712Z" fill="#151A20"/>
<path d="M310.871 48.2741V56.5014H308.785V44.4118H310.662L316.594 52.6307H316.736V44.4118H318.814V56.5014H316.945L311.014 48.2741H310.871Z" fill="#151A20"/>
<path fill-rule="evenodd" clip-rule="evenodd" d="M329.091 51.9187C329.091 54.8928 327.424 56.6858 324.684 56.6858C321.936 56.6858 320.277 54.8928 320.277 51.9187C320.277 48.9612 321.961 47.1515 324.684 47.1515C327.415 47.1515 329.091 48.9528 329.091 51.9187ZM322.405 51.9187C322.405 53.8372 323.234 54.9431 324.684 54.9431C326.133 54.9431 326.954 53.8372 326.954 51.9187C326.954 50.0084 326.125 48.8941 324.684 48.8941C323.234 48.8941 322.405 50.0084 322.405 51.9187Z" fill="#151A20"/>
<path d="M330.989 45.0903V47.3943H329.539V49.0531H330.989V54.0548C330.989 55.831 331.827 56.5431 333.93 56.5431C334.332 56.5431 334.717 56.5012 335.019 56.4425V54.8172L334.998 54.8192C334.759 54.8432 334.6 54.8591 334.315 54.8591C333.444 54.8591 333.058 54.457 333.058 53.5522V49.0531H335.019V47.3943H333.058V45.0903H330.989Z" fill="#151A20"/>
<path fill-rule="evenodd" clip-rule="evenodd" d="M344.011 56.6858C346.751 56.6858 348.418 54.8928 348.418 51.9187C348.418 48.9528 346.742 47.1515 344.011 47.1515C341.288 47.1515 339.604 48.9612 339.604 51.9187C339.604 54.8928 341.263 56.6858 344.011 56.6858ZM344.011 54.9431C342.562 54.9431 341.732 53.8372 341.732 51.9187C341.732 50.0084 342.562 48.8941 344.011 48.8941C345.452 48.8941 346.282 50.0084 346.282 51.9187C346.282 53.8372 345.461 54.9431 344.011 54.9431Z" fill="#151A20"/>
<path d="M351.733 56.5014H349.655V47.3358H351.657V48.802H351.8C352.235 47.7799 353.157 47.1515 354.523 47.1515C356.567 47.1515 357.681 48.3831 357.681 50.5698V56.5014H355.604V51.0641C355.604 49.665 355.017 48.9612 353.752 48.9612C352.512 48.9612 351.733 49.8157 351.733 51.1646V56.5014Z" fill="#151A20"/>
</g>
</g>
<g clip-path="url(#clip4_2_109)">
<g clip-path="url(#clip5_2_109)">
<path fill-rule="evenodd" clip-rule="evenodd" d="M413.888 51.1176L422.025 42.8862C422.578 42.327 423.314 42.0194 424.098 42.0194C424.881 42.0194 425.617 42.3267 426.169 42.8859L426.803 43.5272L428.071 42.2443L427.437 41.603C426.547 40.7021 425.361 40.2059 424.097 40.2059C422.834 40.2062 421.648 40.7023 420.757 41.6036L412.62 49.8347L413.888 51.1176Z" fill="#151A20"/>
<path fill-rule="evenodd" clip-rule="evenodd" d="M424.775 45.6204L423.501 44.3394L415.326 52.5586C414.178 53.7128 412.31 53.7131 411.162 52.5592C410.014 51.405 410.014 49.5268 411.162 48.3726L418.216 41.2807L416.942 40L409.888 47.0919C408.037 48.9523 408.037 51.9798 409.888 53.84C410.783 54.7396 411.974 55.2353 413.243 55.2353C414.513 55.2353 415.705 54.7393 416.6 53.8397L424.775 45.6204Z" fill="#151A20"/>
<path fill-rule="evenodd" clip-rule="evenodd" d="M432.863 47.1598C431.969 46.2602 430.777 45.7647 429.508 45.7647C428.238 45.765 427.046 46.2604 426.151 47.1604L417.977 55.3795L419.25 56.6605L427.426 48.4411C428.574 47.2869 430.442 47.2872 431.589 48.4408C432.145 48.999 432.45 49.742 432.45 50.5337C432.45 51.3258 432.145 52.0691 431.589 52.6272L424.535 59.7192L425.81 61L432.863 53.9083C434.714 52.0478 434.714 49.0203 432.863 47.1598Z" fill="#151A20"/>
<path fill-rule="evenodd" clip-rule="evenodd" d="M428.863 49.8824L420.727 58.1138C419.584 59.2694 417.725 59.27 416.582 58.1141L415.949 57.4728L414.68 58.7557L415.314 59.397C416.205 60.2979 417.391 60.7941 418.655 60.7941C419.918 60.7938 421.104 60.2976 421.994 59.3964L430.131 51.1653L428.863 49.8824Z" fill="#151A20"/>
<path fill-rule="evenodd" clip-rule="evenodd" d="M441.766 52.6433C441.871 53.1686 442.117 53.5798 442.503 53.876C442.889 54.1729 443.397 54.321 444.027 54.321C444.647 54.321 445.127 54.1752 445.465 53.8834C445.804 53.5918 445.974 53.2077 445.974 52.7309C445.974 52.4976 445.928 52.3006 445.838 52.1401C445.747 51.9797 445.621 51.8436 445.459 51.7316C445.296 51.6202 445.096 51.525 444.857 51.4474C444.619 51.3695 444.352 51.2869 444.056 51.1993L443.283 50.9806C442.825 50.8542 442.415 50.7011 442.052 50.5209C441.689 50.3411 441.379 50.1294 441.122 49.8864C440.864 49.6433 440.669 49.3638 440.535 49.0475C440.402 48.7316 440.335 48.3642 440.335 47.9462C440.335 47.5086 440.421 47.105 440.593 46.7353C440.764 46.3661 441.008 46.0495 441.322 45.7871C441.637 45.5246 442.019 45.318 442.467 45.1669C442.916 45.0167 443.421 44.9412 443.984 44.9412C445.043 44.9412 445.883 45.1963 446.503 45.7068C447.123 46.2177 447.486 46.9007 447.591 47.7566L445.873 47.9024C445.768 47.4648 445.559 47.1244 445.244 46.8813C444.929 46.6383 444.49 46.5166 443.927 46.5166C443.402 46.5166 442.992 46.6406 442.696 46.8887C442.4 47.1368 442.252 47.4554 442.252 47.8442C442.252 48.0679 442.296 48.2548 442.382 48.4056C442.467 48.5567 442.591 48.6878 442.753 48.7995C442.916 48.9114 443.114 49.0111 443.347 49.0984C443.581 49.186 443.846 49.2788 444.142 49.3758L444.872 49.6092C445.329 49.755 445.742 49.9081 446.109 50.0686C446.477 50.2291 446.789 50.4213 447.047 50.645C447.305 50.8687 447.503 51.1361 447.641 51.4474C447.779 51.7586 447.848 52.1428 447.848 52.5998C447.848 53.0863 447.753 53.5313 447.562 53.9345C447.371 54.3384 447.104 54.6811 446.761 54.963C446.417 55.2451 446.01 55.4641 445.537 55.6193C445.065 55.7748 444.542 55.8529 443.97 55.8529C442.911 55.8529 442.028 55.6002 441.322 55.0943C440.616 54.5885 440.182 53.8252 440.02 52.8038L441.766 52.6433Z" fill="#151A20"/>
<path fill-rule="evenodd" clip-rule="evenodd" d="M455.236 46.7152C454.721 46.7152 454.261 46.812 453.856 47.0051C453.45 47.1985 453.107 47.4665 452.826 47.8094C452.544 48.1526 452.329 48.5587 452.182 49.0268C452.034 49.4957 451.96 50.0054 451.96 50.556C451.96 51.1069 452.036 51.6189 452.189 52.0926C452.341 52.5659 452.559 52.9764 452.84 53.3246C453.121 53.6721 453.465 53.9451 453.87 54.1434C454.275 54.3412 454.735 54.4401 455.251 54.4401C455.766 54.4401 456.226 54.3462 456.631 54.1578C457.036 53.9694 457.38 53.7061 457.661 53.3676C457.943 53.0296 458.16 52.6212 458.312 52.1432C458.465 51.6648 458.541 51.1406 458.541 50.5706C458.541 50.0101 458.465 49.4931 458.312 49.0197C458.16 48.5467 457.943 48.1406 457.661 47.8024C457.38 47.4645 457.034 47.1985 456.624 47.0051C456.214 46.812 455.751 46.7152 455.236 46.7152ZM455.251 45.1471C456.023 45.1471 456.729 45.2802 457.368 45.5464C458.007 45.8126 458.55 46.1851 458.999 46.6643C459.447 47.1438 459.795 47.7172 460.043 48.3852C460.291 49.0531 460.415 49.7839 460.415 50.5777C460.415 51.4009 460.284 52.1438 460.022 52.8067C459.759 53.47 459.385 54.0434 458.899 54.5273L460.272 56.1683V56.6765H458.527L457.568 55.486C457.234 55.6408 456.876 55.7616 456.495 55.8488C456.114 55.936 455.703 55.9796 455.265 55.9796C454.473 55.9796 453.76 55.8462 453.126 55.5802C452.492 55.314 451.953 54.9413 451.509 54.462C451.066 53.9828 450.722 53.412 450.479 52.7485C450.236 52.0855 450.115 51.362 450.115 50.5777C450.115 49.7839 450.236 49.0557 450.479 48.3922C450.722 47.7295 451.068 47.1582 451.517 46.6789C451.965 46.1997 452.506 45.8246 453.14 45.5534C453.775 45.2828 454.478 45.1471 455.251 45.1471Z" fill="#151A20"/>
<path fill-rule="evenodd" clip-rule="evenodd" d="M467.42 54.3506C468.152 54.3506 468.722 54.1199 469.131 53.6579C469.539 53.1959 469.744 52.4886 469.744 51.5355V45.1471H471.54V51.5793C471.54 52.3378 471.445 52.9867 471.255 53.5266C471.064 54.0661 470.794 54.5087 470.442 54.854C470.09 55.1993 469.658 55.4521 469.145 55.6125C468.632 55.773 468.057 55.8529 467.42 55.8529C466.773 55.8529 466.196 55.773 465.688 55.6125C465.179 55.4521 464.749 55.1993 464.397 54.854C464.046 54.5087 463.775 54.0661 463.584 53.5266C463.394 52.9867 463.299 52.3378 463.299 51.5793V45.1471H465.096V51.5355C465.096 52.4886 465.3 53.1959 465.709 53.6579C466.118 54.1199 466.688 54.3506 467.42 54.3506Z" fill="#151A20"/>
<path fill-rule="evenodd" clip-rule="evenodd" d="M476.686 51.1595H480.124L479.558 49.5251C479.335 48.8849 479.157 48.3638 479.022 47.9626C478.886 47.5611 478.765 47.2075 478.659 46.9016H478.21C478.151 47.0639 478.093 47.2265 478.035 47.3889C477.977 47.5515 477.912 47.7332 477.84 47.9337C477.767 48.1345 477.687 48.3638 477.6 48.6221C477.513 48.8797 477.407 49.181 477.281 49.5251L476.686 51.1595ZM473.394 55.1453L477.093 45.3529H479.834L483.489 55.1453V55.6471H481.69L480.646 52.7078H476.135L475.091 55.6471H473.394V55.1453Z" fill="#151A20"/>
<path fill-rule="evenodd" clip-rule="evenodd" d="M487.536 50.0556H489.102C489.791 50.0556 490.334 49.9299 490.732 49.6792C491.129 49.4281 491.328 49.0185 491.328 48.4497C491.328 47.8719 491.127 47.4695 490.725 47.2422C490.323 47.0151 489.782 46.9013 489.102 46.9013H487.536V50.0556ZM493.583 55.6471H491.845L488.699 51.6039H487.536V55.6471H485.755V45.3529H489.102C489.628 45.3529 490.129 45.3888 490.602 45.4604C491.077 45.532 491.505 45.697 491.888 45.955C492.702 46.49 493.109 47.2977 493.109 48.3772C493.109 48.8457 493.04 49.2542 492.901 49.6032C492.762 49.9519 492.577 50.248 492.348 50.4918C492.118 50.7356 491.852 50.9337 491.551 51.0863C491.249 51.2394 490.935 51.3541 490.61 51.4303L493.583 55.145V55.6471Z" fill="#151A20"/>
<path fill-rule="evenodd" clip-rule="evenodd" d="M495.849 45.3529H502.547V46.9299H497.621V49.6253H502.201V51.1736H497.621V54.0698H502.648V55.6471H495.849V45.3529Z" fill="#151A20"/>
<path fill-rule="evenodd" clip-rule="evenodd" d="M506.66 52.6433C506.765 53.1686 507.011 53.5798 507.397 53.876C507.784 54.1729 508.292 54.321 508.921 54.321C509.541 54.321 510.02 54.1752 510.36 53.8834C510.698 53.5918 510.868 53.2077 510.868 52.7309C510.868 52.4976 510.822 52.3006 510.732 52.1401C510.641 51.9797 510.514 51.8436 510.352 51.7316C510.19 51.6202 509.99 51.525 509.751 51.4474C509.513 51.3695 509.245 51.2869 508.95 51.1993L508.177 50.9806C507.719 50.8542 507.309 50.7011 506.946 50.5209C506.583 50.3411 506.273 50.1294 506.016 49.8864C505.759 49.6433 505.563 49.3638 505.429 49.0475C505.296 48.7316 505.229 48.3642 505.229 47.9462C505.229 47.5086 505.315 47.105 505.487 46.7353C505.658 46.3661 505.902 46.0495 506.216 45.7871C506.531 45.5246 506.913 45.318 507.361 45.1669C507.809 45.0167 508.315 44.9412 508.878 44.9412C509.937 44.9412 510.777 45.1963 511.397 45.7068C512.017 46.2177 512.38 46.9007 512.485 47.7566L510.767 47.9024C510.662 47.4648 510.452 47.1244 510.138 46.8813C509.823 46.6383 509.384 46.5166 508.821 46.5166C508.296 46.5166 507.886 46.6406 507.59 46.8887C507.295 47.1368 507.147 47.4554 507.147 47.8442C507.147 48.0679 507.19 48.2548 507.275 48.4056C507.361 48.5567 507.485 48.6878 507.647 48.7995C507.809 48.9114 508.008 49.0111 508.241 49.0984C508.475 49.186 508.74 49.2788 509.036 49.3758L509.766 49.6092C510.223 49.755 510.636 49.9081 511.003 50.0686C511.371 50.2291 511.683 50.4213 511.941 50.645C512.198 50.8687 512.396 51.1361 512.535 51.4474C512.673 51.7586 512.742 52.1428 512.742 52.5998C512.742 53.0863 512.647 53.5313 512.456 53.9345C512.265 54.3384 511.998 54.6811 511.655 54.963C511.311 55.2451 510.903 55.4641 510.431 55.6193C509.958 55.7748 509.436 55.8529 508.864 55.8529C507.805 55.8529 506.922 55.6002 506.216 55.0943C505.51 54.5885 505.076 53.8252 504.914 52.8038L506.66 52.6433Z" fill="#151A20"/>
<path fill-rule="evenodd" clip-rule="evenodd" d="M517.246 50.1415H518.998C519.32 50.1415 519.614 50.1155 519.882 50.0632C520.149 50.0112 520.383 49.9237 520.583 49.8004C520.782 49.6773 520.938 49.5115 521.05 49.3029C521.162 49.0947 521.218 48.8387 521.218 48.5354C521.218 48.2228 521.162 47.9603 521.05 47.7471C520.938 47.5339 520.784 47.3658 520.59 47.2424C520.395 47.1191 520.164 47.0316 519.896 46.9796C519.628 46.9276 519.339 46.9013 519.028 46.9013H517.246V50.1415ZM515.421 45.3529H519.247C519.957 45.3529 520.553 45.4341 521.035 45.5967C521.517 45.7591 521.907 45.9835 522.204 46.2707C522.5 46.5572 522.715 46.8941 522.846 47.2814C522.977 47.6682 523.043 48.0865 523.043 48.5357C523.043 49.0713 522.953 49.5369 522.773 49.9335C522.593 50.3301 522.333 50.6574 521.992 50.9157C521.651 51.1736 521.237 51.3672 520.751 51.4963C520.264 51.6254 519.714 51.6898 519.101 51.6898H517.246V55.6471H515.421V45.3529Z" fill="#151A20"/>
<path fill-rule="evenodd" clip-rule="evenodd" d="M526.748 51.1595H530.185L529.619 49.5251C529.397 48.8849 529.218 48.3638 529.082 47.9626C528.947 47.5611 528.826 47.2075 528.72 46.9016H528.27C528.213 47.0639 528.154 47.2265 528.096 47.3889C528.038 47.5515 527.973 47.7332 527.9 47.9337C527.828 48.1345 527.748 48.3638 527.661 48.6221C527.574 48.8797 527.468 49.181 527.342 49.5251L526.748 51.1595ZM523.455 55.1453L527.154 45.3529H529.895L533.55 55.1453V55.6471H531.751L530.707 52.7078H526.196L525.152 55.6471H523.455V55.1453Z" fill="#151A20"/>
<path fill-rule="evenodd" clip-rule="evenodd" d="M544.468 52.9253C544.305 53.3273 544.09 53.7055 543.826 54.0602C543.56 54.415 543.24 54.7259 542.864 54.9913C542.489 55.2567 542.053 55.4666 541.556 55.621C541.06 55.7755 540.509 55.8529 539.902 55.8529C539.131 55.8529 538.43 55.7188 537.799 55.4507C537.168 55.1833 536.629 54.8123 536.183 54.339C535.737 53.8651 535.393 53.3009 535.15 52.6455C534.907 51.9903 534.786 51.2798 534.786 50.5142C534.786 49.7491 534.907 49.0387 535.15 48.3832C535.393 47.728 535.739 47.161 536.19 46.6824C536.641 46.2045 537.183 45.8286 537.814 45.5562C538.445 45.2832 539.15 45.1471 539.931 45.1471C541.067 45.1471 542.019 45.4105 542.785 45.9364C543.551 46.4624 544.093 47.161 544.411 48.0316L542.575 48.3901C542.325 47.8642 541.975 47.4501 541.528 47.1488C541.079 46.8475 540.537 46.6969 539.902 46.6969C539.391 46.6969 538.936 46.7946 538.536 46.9901C538.136 47.1855 537.799 47.4547 537.524 47.7979C537.25 48.1409 537.04 48.546 536.896 49.0132C536.751 49.4802 536.679 49.9804 536.679 50.5142C536.679 51.0575 536.754 51.5603 536.903 52.0226C537.052 52.4853 537.269 52.8852 537.553 53.2237C537.837 53.562 538.182 53.8263 538.587 54.0169C538.991 54.2077 539.454 54.3031 539.974 54.3031C540.648 54.3031 541.205 54.1403 541.643 53.815C542.082 53.4898 542.421 53.0928 542.662 52.6238L544.468 52.9253Z" fill="#151A20"/>
<path fill-rule="evenodd" clip-rule="evenodd" d="M546.702 45.3529H553.399V46.9299H548.473V49.6253H553.053V51.1736H548.473V54.0698H553.5V55.6471H546.702V45.3529Z" fill="#151A20"/>
</g>
</g>
<g clip-path="url(#clip6_2_109)">
<g clip-path="url(#clip7_2_109)">
<path d="M127.143 112.84C127.143 111.06 125.412 109.169 122.416 109.169C119.052 109.169 115.357 111.637 114.792 116.56C114.215 121.533 117.309 123.742 120.427 123.742C123.546 123.742 125.179 122.527 126.849 120.906C125.412 119.102 123.558 119.936 123.202 120.121C122.809 120.317 122.306 120.587 121.275 120.587C120.071 120.587 118.844 120.047 118.844 117.8C126.554 117.039 127.143 114.62 127.143 112.84ZM123.325 113.135C123.276 113.687 123.055 114.633 119.151 115.161C119.973 112.238 121.545 112.018 122.269 112.018C122.944 112.018 123.374 112.545 123.325 113.135ZM110.262 113.614C110.262 113.614 108.604 118.819 108.469 119.249C108.42 118.807 107.205 109.464 107.205 109.464C104.381 109.464 102.871 111.477 102.073 113.601C102.073 113.601 100.059 118.819 99.8873 119.261C99.875 118.856 99.5804 113.663 99.5804 113.663C99.4085 111.06 97.0267 109.476 95.0991 109.476L97.4318 123.632C100.391 123.62 101.987 121.618 102.822 119.494C102.822 119.494 104.602 114.89 104.675 114.682C104.688 114.878 105.952 123.632 105.952 123.632C108.923 123.632 110.52 121.753 111.379 119.703L115.541 109.476C112.607 109.476 111.06 111.477 110.262 113.614ZM138.046 109.145C136.216 109.145 134.817 110.139 133.638 111.6V111.588L134.694 103.08C132.263 103.08 130.286 105.191 129.906 108.334L128.064 123.521C129.464 123.521 130.949 123.116 131.747 122.085C132.459 123.006 133.527 123.742 135.111 123.742C139.212 123.742 142.023 118.979 142.023 114.51C141.999 110.434 140.022 109.145 138.046 109.145ZM137.665 116.45C137.235 118.942 135.848 120.636 134.51 120.636C133.159 120.636 132.582 120.035 132.582 120.035C132.84 117.849 133 116.511 133.491 115.357C133.982 114.203 135.148 112.361 136.364 112.361C137.555 112.361 138.095 113.945 137.665 116.45ZM152.263 109.476H149.402L149.414 109.329C149.611 107.463 150.053 106.48 151.514 106.321C152.508 106.223 152.95 105.707 153.061 105.142C153.147 104.7 153.417 103.165 153.417 103.165C147.671 103.129 145.866 105.609 145.4 109.39L145.387 109.476H145.326C144.393 109.476 143.362 110.532 143.19 111.87L143.129 112.361H145.044L143.435 125.645L142.944 128.027C143.006 128.027 143.079 128.04 143.141 128.04C145.83 127.941 147.548 125.817 147.929 122.736L149.181 112.361H150.077C150.961 112.361 151.993 111.477 152.177 110.004L152.263 109.476ZM167.143 109.231C163.84 109.231 160.722 111.661 159.764 115.48C158.807 119.298 160.256 123.816 165.117 123.816C169.967 123.816 172.766 119.114 172.766 115.197C172.766 111.305 170.127 109.231 167.143 109.231ZM168.481 116.327C168.31 118.058 167.548 120.685 165.461 120.685C163.362 120.685 163.656 117.616 163.865 116.155C164.086 114.596 164.958 112.374 166.836 112.374C168.518 112.374 168.678 114.375 168.481 116.327ZM189.083 113.614C189.083 113.614 187.426 118.819 187.29 119.249C187.241 118.807 186.026 109.464 186.026 109.464C183.202 109.464 181.692 111.477 180.894 113.601C180.894 113.601 178.88 118.819 178.709 119.261C178.696 118.856 178.402 113.663 178.402 113.663C178.23 111.06 175.848 109.476 173.92 109.476L176.241 123.632C179.2 123.62 180.796 121.618 181.631 119.494C181.631 119.494 183.411 114.89 183.472 114.682C183.484 114.878 184.749 123.632 184.749 123.632C187.72 123.632 189.316 121.753 190.176 119.703L194.338 109.476C191.416 109.476 189.869 111.477 189.083 113.614ZM154.964 103.165L152.558 122.576L152.066 124.97C152.128 124.97 152.201 124.982 152.263 124.982C154.854 124.946 156.695 122.674 157.039 119.814L158.426 108.678C158.844 105.277 156.818 103.165 154.964 103.165Z" fill="#4353FF"/>
</g>
</g>
<g clip-path="url(#clip8_2_109)">
<g clip-path="url(#clip9_2_109)">
<path fill-rule="evenodd" clip-rule="evenodd" d="M301.22 121.071C300.214 121.071 299.633 120.147 299.57 119.421L299.569 119.419C298.616 120.682 296.69 121.368 294.923 121.368C290.906 121.368 287.65 118.109 287.65 114.089C287.65 110.07 290.906 106.811 294.923 106.811C296.69 106.811 298.452 107.383 299.57 108.761V107.709H299.572C299.584 107.49 299.764 107.316 299.985 107.316H301.809C302.03 107.316 302.21 107.49 302.222 107.709H302.224V120.655C302.224 120.884 302.037 121.071 301.809 121.071H301.22ZM290.305 114.089C290.305 116.702 292.376 118.82 294.93 118.82C297.484 118.82 299.555 116.702 299.555 114.089C299.555 111.477 297.484 109.358 294.93 109.358C292.376 109.358 290.305 111.477 290.305 114.089Z" fill="#151A20"/>
<path d="M306.582 117.566C307.8 118.411 309.129 118.821 310.407 118.821C311.624 118.821 312.882 118.189 312.882 117.091C312.882 115.978 311.305 115.578 309.792 115.194C309.31 115.072 308.834 114.951 308.418 114.809C306.695 114.224 305.212 113.012 305.212 111.051C305.212 108.05 307.883 106.811 310.377 106.811C311.957 106.811 313.587 107.333 314.644 108.079C315.008 108.355 314.787 108.672 314.787 108.672L313.778 110.114C313.664 110.277 313.466 110.417 313.181 110.241C313.162 110.229 313.139 110.214 313.112 110.198C312.756 109.971 311.793 109.358 310.377 109.358C308.856 109.358 307.939 110.062 307.939 110.933C307.939 111.978 309.13 112.307 310.525 112.663C312.957 113.319 315.609 114.108 315.609 117.091C315.609 119.735 313.138 121.369 310.407 121.369C308.337 121.369 306.575 120.778 305.097 119.693C304.789 119.384 305.004 119.098 305.004 119.098L306.008 117.663C306.212 117.395 306.47 117.489 306.582 117.566Z" fill="#151A20"/>
<path fill-rule="evenodd" clip-rule="evenodd" d="M362.512 119.421C362.576 120.147 363.156 121.071 364.163 121.071H364.751C364.979 121.071 365.167 120.884 365.167 120.655V107.709H365.164C365.152 107.49 364.972 107.316 364.751 107.316H362.927C362.707 107.316 362.526 107.49 362.514 107.709H362.512V108.761C361.394 107.383 359.632 106.811 357.865 106.811C353.849 106.811 350.593 110.07 350.593 114.089C350.593 118.109 353.849 121.368 357.865 121.368C359.632 121.368 361.558 120.682 362.512 119.419V119.421ZM357.872 118.82C355.318 118.82 353.247 116.702 353.247 114.089C353.247 111.477 355.318 109.358 357.872 109.358C360.427 109.358 362.497 111.477 362.497 114.089C362.497 116.702 360.427 118.82 357.872 118.82Z" fill="#151A20"/>
<path d="M348.287 113.167C348.287 109.39 345.906 106.843 342.11 106.843C340.298 106.843 338.812 107.891 338.287 108.792C338.174 108.088 337.8 107.347 336.641 107.347H336.051C335.822 107.347 335.636 107.534 335.636 107.763V120.711H335.638C335.65 120.929 335.831 121.103 336.051 121.103H337.875C337.903 121.103 337.931 121.1 337.957 121.095C337.965 121.093 337.972 121.091 337.98 121.088C337.984 121.087 337.988 121.086 337.992 121.084C337.996 121.083 338 121.082 338.004 121.081C338.014 121.078 338.024 121.076 338.033 121.072C338.045 121.067 338.057 121.06 338.069 121.053L338.079 121.048C338.082 121.046 338.085 121.044 338.089 121.042C338.091 121.041 338.093 121.04 338.096 121.038C338.098 121.037 338.099 121.036 338.101 121.035C338.119 121.023 338.136 121.009 338.152 120.995C338.155 120.992 338.158 120.99 338.16 120.988C338.179 120.97 338.195 120.951 338.21 120.931C338.256 120.868 338.283 120.792 338.288 120.711H338.29V113.063C338.29 111.035 339.933 109.39 341.96 109.39C343.987 109.39 345.63 111.035 345.63 113.063L345.632 119.455V119.453C345.632 119.456 345.632 119.459 345.633 119.462C345.633 119.465 345.633 119.468 345.633 119.471V120.711H345.636C345.648 120.929 345.828 121.103 346.048 121.103H347.873C347.901 121.103 347.928 121.1 347.954 121.095C347.965 121.093 347.975 121.089 347.986 121.086L347.996 121.083C348.007 121.08 348.019 121.076 348.03 121.072L348.035 121.07C348.039 121.068 348.044 121.066 348.048 121.063C348.053 121.061 348.058 121.058 348.062 121.055L348.073 121.049L348.077 121.047L348.083 121.044C348.088 121.041 348.094 121.039 348.099 121.035C348.116 121.024 348.131 121.011 348.146 120.997L348.148 120.996L348.155 120.991C348.156 120.99 348.157 120.989 348.158 120.988C348.175 120.971 348.191 120.953 348.205 120.934L348.206 120.933L348.207 120.932L348.208 120.93C348.253 120.868 348.28 120.793 348.285 120.712V120.711H348.288L348.287 113.167Z" fill="#151A20"/>
<path fill-rule="evenodd" clip-rule="evenodd" d="M330.94 121.071C329.933 121.071 329.353 120.147 329.289 119.421L329.289 119.419C328.335 120.682 326.409 121.369 324.642 121.369C320.626 121.369 317.37 118.11 317.37 114.09C317.37 110.07 320.626 106.811 324.642 106.811C326.409 106.811 328.171 107.383 329.289 108.761V107.709H329.291C329.303 107.491 329.484 107.316 329.704 107.316H331.528C331.749 107.316 331.929 107.491 331.941 107.709H331.943V120.656C331.943 120.884 331.756 121.071 331.528 121.071H330.94ZM320.024 114.09C320.024 116.703 322.095 118.821 324.649 118.821C327.204 118.821 329.274 116.703 329.274 114.09C329.274 111.477 327.204 109.359 324.649 109.359C322.095 109.359 320.024 111.477 320.024 114.09Z" fill="#151A20"/>
<path fill-rule="evenodd" clip-rule="evenodd" d="M277.454 114.585C274.751 114.585 272.56 116.776 272.56 119.479C272.56 122.182 274.751 124.373 277.454 124.373C280.157 124.373 282.348 122.182 282.348 119.479C282.348 116.776 280.157 114.585 277.454 114.585ZM264.739 114.585C262.036 114.585 259.845 116.776 259.845 119.479C259.845 122.182 262.036 124.373 264.739 124.373C267.442 124.373 269.633 122.182 269.633 119.479C269.633 116.776 267.442 114.585 264.739 114.585ZM275.991 108.467C275.991 111.17 273.799 113.361 271.097 113.361C268.393 113.361 266.202 111.17 266.202 108.467C266.202 105.764 268.393 103.573 271.097 103.573C273.799 103.573 275.991 105.764 275.991 108.467Z" fill="#F06A6A"/>
</g>
</g>
<g clip-path="url(#clip10_2_109)">
<g clip-path="url(#clip11_2_109)">
<path d="M461.895 121.473L463.178 118.492C464.565 119.527 466.407 120.065 468.229 120.065C469.575 120.065 470.424 119.548 470.424 118.761C470.403 116.567 462.371 118.285 462.309 112.779C462.288 109.984 464.772 107.831 468.291 107.831C470.382 107.831 472.473 108.349 473.964 109.529L472.763 112.572C471.397 111.702 469.699 111.081 468.084 111.081C466.987 111.081 466.263 111.599 466.263 112.261C466.283 114.414 474.377 113.234 474.46 118.492C474.46 121.349 472.038 123.357 468.56 123.357C466.014 123.357 463.675 122.756 461.895 121.473Z" fill="#151A20"/>
<path d="M511.143 117.416C510.502 118.534 509.301 119.299 507.914 119.299C505.864 119.299 504.208 117.643 504.208 115.594C504.208 113.545 505.864 111.889 507.914 111.889C509.301 111.889 510.502 112.655 511.143 113.772L514.683 111.806C513.358 109.446 510.812 107.831 507.914 107.831C503.629 107.831 500.151 111.309 500.151 115.594C500.151 119.879 503.629 123.357 507.914 123.357C510.833 123.357 513.358 121.763 514.683 119.382L511.143 117.416Z" fill="#151A20"/>
<path d="M476.242 101.393H480.673V123.067H476.242V101.393Z" fill="#151A20"/>
<path d="M516.422 101.393V123.067H520.852V116.567L526.11 123.067H531.782L525.096 115.345L531.285 108.141H525.862L520.852 114.124V101.393H516.422Z" fill="#151A20"/>
<path d="M493.837 117.457C493.195 118.513 491.87 119.299 490.38 119.299C488.33 119.299 486.674 117.643 486.674 115.594C486.674 113.545 488.33 111.889 490.38 111.889C491.87 111.889 493.195 112.717 493.837 113.793V117.457ZM493.837 108.142V109.901C493.112 108.68 491.311 107.831 489.427 107.831C485.536 107.831 482.472 111.268 482.472 115.573C482.472 119.879 485.536 123.357 489.427 123.357C491.311 123.357 493.112 122.508 493.837 121.287V123.046H498.267V108.142H493.837Z" fill="#151A20"/>
<path d="M434.476 117.433C434.476 118.937 433.247 120.166 431.743 120.166C430.239 120.166 429.01 118.937 429.01 117.433C429.01 115.928 430.239 114.699 431.743 114.699H434.476V117.433Z" fill="#E01E5A"/>
<path d="M435.853 117.433C435.853 115.928 437.082 114.699 438.586 114.699C440.091 114.699 441.32 115.928 441.32 117.433V124.277C441.32 125.781 440.091 127.01 438.586 127.01C437.082 127.01 435.853 125.781 435.853 124.277V117.433Z" fill="#E01E5A"/>
<path d="M438.586 106.456C437.082 106.456 435.853 105.227 435.853 103.723C435.853 102.218 437.082 100.989 438.586 100.989C440.091 100.989 441.32 102.218 441.32 103.723V106.456H438.586Z" fill="#36C5F0"/>
<path d="M438.587 107.833C440.091 107.833 441.32 109.062 441.32 110.567C441.32 112.071 440.091 113.3 438.587 113.3H431.743C430.239 113.3 429.01 112.071 429.01 110.567C429.01 109.062 430.239 107.833 431.743 107.833H438.587Z" fill="#36C5F0"/>
<path d="M449.563 110.567C449.563 109.062 450.792 107.833 452.297 107.833C453.801 107.833 455.03 109.062 455.03 110.567C455.03 112.071 453.801 113.3 452.297 113.3H449.563V110.567Z" fill="#2EB67D"/>
<path d="M448.187 110.567C448.187 112.071 446.958 113.3 445.453 113.3C443.949 113.3 442.72 112.071 442.72 110.567V103.723C442.72 102.218 443.949 100.989 445.453 100.989C446.958 100.989 448.187 102.218 448.187 103.723V110.567Z" fill="#2EB67D"/>
<path d="M445.453 121.543C446.958 121.543 448.187 122.772 448.187 124.277C448.187 125.781 446.958 127.01 445.453 127.01C443.949 127.01 442.72 125.781 442.72 124.277V121.543H445.453Z" fill="#ECB22E"/>
<path d="M445.453 120.166C443.949 120.166 442.72 118.937 442.72 117.433C442.72 115.928 443.949 114.699 445.453 114.699H452.297C453.802 114.699 455.031 115.928 455.031 117.433C455.031 118.937 453.802 120.166 452.297 120.166H445.453Z" fill="#ECB22E"/>
</g>
</g>
<g clip-path="url(#clip12_2_109)">
<g clip-path="url(#clip13_2_109)">
<path fill-rule="evenodd" clip-rule="evenodd" d="M91.2598 168.394V187.982H105.024V184.864H94.9656V179.629H104.554V176.512H94.9656V171.512H105.024V168.394H91.2598Z" fill="#151A20"/>
<path fill-rule="evenodd" clip-rule="evenodd" d="M122.612 187.982H119.024V186.217C118.553 186.923 117.906 187.453 117.142 187.806C116.259 188.217 115.318 188.394 114.377 188.394C113.142 188.394 111.965 188.1 110.906 187.453C109.848 186.806 109.024 185.923 108.436 184.864C107.789 183.688 107.495 182.394 107.495 181.041C107.495 179.688 107.789 178.394 108.436 177.218C109.024 176.159 109.906 175.276 110.906 174.629C111.965 173.982 113.142 173.688 114.377 173.688C115.318 173.688 116.318 173.865 117.142 174.335C117.906 174.747 118.553 175.276 119.024 175.982V168.218H122.671L122.612 187.982ZM111.259 181.1C111.201 182.217 111.612 183.335 112.377 184.217C113.142 185.041 114.2 185.512 115.318 185.453C116.142 185.453 116.965 185.217 117.671 184.806C118.318 184.394 118.847 183.747 119.083 183.041V181.218C119.142 180.041 118.73 178.865 117.965 177.982C117.259 177.218 116.2 176.747 115.142 176.806C114.083 176.747 113.024 177.218 112.318 178.041C111.612 178.865 111.259 179.923 111.259 181.1Z" fill="#151A20"/>
<path fill-rule="evenodd" clip-rule="evenodd" d="M191.081 179.806L188.552 183.276L192.022 187.982H197.14L191.081 179.806ZM191.081 176.512L197.14 168.394H192.022L188.552 173.1L191.081 176.512ZM182.611 168.394H177.493L184.728 178.217L177.493 188.041H182.611L189.846 178.217L182.611 168.394ZM170.376 177.217H169.611C168.493 177.159 167.376 177.57 166.552 178.335C165.788 179.1 165.376 180.335 165.376 182.041V187.923H161.846V174.159H165.435V176.865C165.67 176.218 166.082 175.57 166.67 175.1C167.14 174.688 167.67 174.394 168.258 174.159C168.787 173.982 169.376 173.865 169.905 173.865H170.376V177.217ZM151.317 188.394C149.964 188.394 148.611 188.1 147.376 187.453C146.258 186.864 145.317 185.923 144.67 184.864C144.023 183.688 143.67 182.394 143.67 181.041C143.67 179.688 143.965 178.394 144.67 177.217C145.317 176.1 146.258 175.218 147.376 174.629C149.847 173.394 152.788 173.394 155.317 174.629C156.435 175.218 157.376 176.1 158.023 177.217C158.67 178.394 159.023 179.688 159.023 181.041C159.023 182.394 158.729 183.688 158.023 184.864C157.376 185.982 156.435 186.864 155.317 187.453C154.082 188.1 152.729 188.453 151.317 188.394ZM151.317 185.394C152.376 185.453 153.435 185.041 154.2 184.217C154.905 183.335 155.317 182.217 155.258 181.1C155.317 179.982 154.905 178.865 154.2 177.982C153.494 177.159 152.435 176.747 151.376 176.806C150.317 176.747 149.258 177.217 148.553 177.982C147.847 178.865 147.435 179.923 147.494 181.1C147.435 182.217 147.847 183.335 148.553 184.217C149.258 184.982 150.317 185.453 151.317 185.394ZM141.965 187.982H138.435C135.906 187.982 134.671 186.747 134.671 184.217V177.1H132.259V174.159H134.671V170.512H138.317V174.159H141.729V177.1H138.317V183.57C138.317 184.511 138.788 184.982 139.671 184.982H141.906L141.965 187.982ZM127.847 171.806C127.259 171.806 126.73 171.571 126.259 171.218C125.847 170.865 125.612 170.276 125.612 169.747C125.612 169.159 125.847 168.629 126.259 168.218C127.141 167.394 128.494 167.394 129.377 168.218C129.788 168.629 130.024 169.159 130.024 169.747C130.024 170.335 129.788 170.865 129.377 171.218C128.965 171.571 128.377 171.806 127.847 171.806ZM126.024 187.982H129.671V174.159H126.024V187.982Z" fill="#151A20"/>
<path fill-rule="evenodd" clip-rule="evenodd" d="M191.081 179.806L188.552 183.276L192.022 187.982H197.14L191.081 179.806ZM191.081 176.512L197.14 168.394H192.022L188.552 173.1L191.081 176.512ZM182.611 168.394H177.493L184.728 178.217L177.493 188.041H182.611L189.846 178.217L182.611 168.394ZM170.376 177.217H169.611C168.493 177.159 167.376 177.57 166.552 178.335C165.788 179.1 165.376 180.335 165.376 182.041V187.923H161.846V174.159H165.435V176.865C165.67 176.218 166.082 175.57 166.67 175.1C167.14 174.688 167.67 174.394 168.258 174.159C168.787 173.982 169.376 173.865 169.905 173.865H170.376V177.217ZM151.317 188.394C149.964 188.394 148.611 188.1 147.376 187.453C146.258 186.864 145.317 185.923 144.67 184.864C144.023 183.688 143.67 182.394 143.67 181.041C143.67 179.688 143.965 178.394 144.67 177.217C145.317 176.1 146.258 175.218 147.376 174.629C149.847 173.394 152.788 173.394 155.317 174.629C156.435 175.218 157.376 176.1 158.023 177.217C158.67 178.394 159.023 179.688 159.023 181.041C159.023 182.394 158.729 183.688 158.023 184.864C157.376 185.982 156.435 186.864 155.317 187.453C154.082 188.1 152.729 188.453 151.317 188.394ZM151.317 185.394C152.376 185.453 153.435 185.041 154.2 184.217C154.905 183.335 155.317 182.217 155.258 181.1C155.317 179.982 154.905 178.865 154.2 177.982C153.494 177.159 152.435 176.747 151.376 176.806C150.317 176.747 149.258 177.217 148.553 177.982C147.847 178.865 147.435 179.923 147.494 181.1C147.435 182.217 147.847 183.335 148.553 184.217C149.258 184.982 150.317 185.453 151.317 185.394ZM141.965 187.982H138.435C135.906 187.982 134.671 186.747 134.671 184.217V177.1H132.259V174.159H134.671V170.512H138.317V174.159H141.729V177.1H138.317V183.57C138.317 184.511 138.788 184.982 139.671 184.982H141.906L141.965 187.982ZM127.847 171.806C127.259 171.806 126.73 171.571 126.259 171.218C125.847 170.865 125.612 170.276 125.612 169.747C125.612 169.159 125.847 168.629 126.259 168.218C127.141 167.394 128.494 167.394 129.377 168.218C129.788 168.629 130.024 169.159 130.024 169.747C130.024 170.335 129.788 170.865 129.377 171.218C128.965 171.571 128.377 171.806 127.847 171.806ZM126.024 187.982H129.671V174.159H126.024V187.982Z" fill="#151A20"/>
</g>
</g>
<g clip-path="url(#clip14_2_109)">
<g clip-path="url(#clip15_2_109)">
<path fill-rule="evenodd" clip-rule="evenodd" d="M277.61 167.178H261.117C260.434 167.179 259.779 167.45 259.297 167.933C258.814 168.416 258.543 169.07 258.542 169.753V186.247C258.543 186.93 258.814 187.585 259.297 188.067C259.779 188.55 260.434 188.822 261.117 188.822H277.61C278.293 188.822 278.947 188.55 279.43 188.067C279.913 187.585 280.184 186.93 280.185 186.247V169.753C280.184 169.07 279.913 168.416 279.43 167.933C278.947 167.45 278.293 167.179 277.61 167.178ZM267.865 182.767C267.865 182.994 267.774 183.211 267.614 183.372C267.453 183.532 267.236 183.623 267.009 183.623H263.393C263.166 183.623 262.948 183.532 262.788 183.372C262.627 183.211 262.537 182.994 262.537 182.767V172.03C262.537 171.803 262.627 171.585 262.788 171.424C262.948 171.264 263.166 171.174 263.393 171.174H267.009C267.236 171.174 267.453 171.264 267.614 171.424C267.774 171.585 267.865 171.803 267.865 172.03V182.767ZM276.19 177.837C276.192 177.951 276.172 178.064 276.13 178.17C276.088 178.276 276.025 178.372 275.945 178.454C275.866 178.535 275.77 178.6 275.665 178.644C275.56 178.688 275.448 178.711 275.334 178.71H271.718C271.491 178.71 271.273 178.62 271.113 178.46C270.952 178.299 270.862 178.082 270.862 177.855V172.03C270.862 171.803 270.952 171.585 271.113 171.424C271.273 171.264 271.491 171.174 271.718 171.174H275.334C275.561 171.174 275.778 171.264 275.939 171.424C276.099 171.585 276.19 171.803 276.19 172.03V177.837Z" fill="url(#paint0_linear_2_109)"/>
<path d="M338.005 188.754C335.11 188.754 333.289 187.366 333.289 184.086V167H337.738V183.476C337.738 184.422 338.362 184.759 339.125 184.759C339.345 184.763 339.565 184.753 339.784 184.728V188.573C339.202 188.715 338.604 188.776 338.005 188.754Z" fill="#0D63DD"/>
<path d="M303.214 172.767V168.585H288.525V172.767H293.48V188.632H298.259V172.767H303.214Z" fill="#0D63DD"/>
<path d="M304.881 188.632H309.299V180.455C309.299 177.955 310.749 177.192 313.87 177.435V172.812C311.481 172.659 310.139 173.911 309.299 176.016V173.027H304.881V188.632Z" fill="#0D63DD"/>
<path d="M342.567 184.086C342.567 187.366 344.391 188.754 347.286 188.754C347.888 188.777 348.491 188.716 349.076 188.573V184.728C348.858 184.753 348.639 184.763 348.42 184.759C347.644 184.759 347.016 184.422 347.016 183.476V167H342.567V184.086Z" fill="#0D63DD"/>
<path fill-rule="evenodd" clip-rule="evenodd" d="M351.206 180.823C351.206 176.003 353.98 172.705 358.759 172.705C363.537 172.705 366.253 175.992 366.253 180.823C366.253 185.654 363.506 189 358.759 189C354.012 189 351.206 185.612 351.206 180.823ZM355.537 180.823C355.537 183.171 356.522 185.033 358.759 185.033C360.996 185.033 361.925 183.171 361.925 180.823C361.925 178.475 360.971 176.662 358.759 176.662C356.546 176.662 355.537 178.472 355.537 180.823Z" fill="#0D63DD"/>
<path fill-rule="evenodd" clip-rule="evenodd" d="M323.558 182.453C322.313 182.443 321.07 182.37 319.834 182.234C320.236 184.481 321.883 185.258 324.248 185.258C326.01 185.258 327.726 184.773 329.252 184.284V188.022C327.604 188.646 325.854 188.959 324.092 188.944C318.152 188.944 315.523 185.972 315.523 180.968C315.523 176.148 318.571 172.698 323.329 172.698C326.863 172.698 329.8 175.087 329.8 178.267C329.8 181.544 326.942 182.453 323.558 182.453ZM325.496 178.114C325.496 176.953 324.491 176.103 323.239 176.103V176.11C322.658 176.116 322.089 176.278 321.591 176.577C321.093 176.876 320.684 177.303 320.406 177.813C320.059 178.456 319.85 179.165 319.792 179.893C320.556 180.012 321.328 180.074 322.101 180.077C323.919 180.077 325.496 179.609 325.496 178.114Z" fill="#0D63DD"/>
</g>
</g>
<g clip-path="url(#clip16_2_109)">
<g clip-path="url(#clip17_2_109)">
<path d="M494.267 185.329C494.267 185.329 497.409 185.172 498.603 184.898C499.156 184.771 498.915 184.268 498.868 184.169C498.862 184.158 498.86 184.152 498.86 184.152C498.122 182.659 497.26 182.742 497.26 182.742C494.789 182.659 491.199 183.314 490.809 183.505C490.444 183.671 490.477 183.945 490.958 184.55C491.472 185.18 492.335 185.122 492.335 185.122L491.58 186.689C490.967 186.739 490.751 186.93 490.751 186.93C490.395 187.303 490.884 188.43 490.884 188.43C490.884 188.43 489.806 190.843 490.585 192.112C491.423 193.447 492.409 193.38 492.409 193.38C494.292 193.521 497.376 191.548 497.542 190.901C497.683 190.371 497.202 189.798 496.771 189.691C496.365 189.608 493.272 190.188 492.899 190.288C492.501 190.395 492.675 190.022 492.675 190.022L493.156 188.405C493.156 188.405 496.107 188.298 496.539 188.223C496.937 188.157 496.961 187.875 496.961 187.875C496.961 187.875 497.011 187.41 496.995 186.979C496.953 186.515 496.58 186.556 496.58 186.556C495.436 186.44 493.869 186.573 493.869 186.573L494.267 185.329Z" fill="#151A20"/>
<path d="M487.119 191.963C488.156 192.46 488.993 191.664 489.308 190.918C489.624 190.172 490.171 187.692 489.366 184.915C488.554 182.162 486.862 181.316 486.862 181.316C486.862 181.316 486.423 181.109 486.315 181.548C486.199 181.979 486.365 182.444 486.365 182.444C487.451 186.142 487.7 188.323 487.7 188.323C487.7 188.323 487.75 188.969 487.625 189.002C487.542 189.069 487.443 188.978 487.443 188.978C487.318 188.986 486.124 186.979 486.124 186.979L485.892 186.59C484.574 184.467 483.778 183.746 483.778 183.746L483.769 183.737C483.58 183.556 483.105 183.102 482.518 183.754C481.921 184.425 481.456 186.565 481.266 188.571C481.108 190.578 481.233 191.722 481.523 192.203C481.846 192.692 482.468 192.858 482.982 192.443C483.394 192.127 483.433 190.506 483.465 189.153C483.475 188.736 483.485 188.344 483.504 188.024C483.587 186.664 483.72 186.905 483.72 186.905C483.836 186.88 484.458 188.124 484.458 188.124C484.458 188.124 486.091 191.465 487.119 191.963Z" fill="#151A20"/>
<path d="M480.947 183.96C480.965 183.92 480.982 183.882 481 183.845C481.104 183.617 481.052 183.447 481.037 183.396C481.034 183.386 481.033 183.381 481.033 183.381C480.304 182.568 476.332 182.709 476.332 182.709C474.889 182.842 471.548 183.431 471.067 184.956C470.611 186.416 471.026 186.93 471.026 186.93C471.381 187.583 473.537 187.64 474.633 187.669C474.816 187.674 474.97 187.678 475.08 187.684C475.884 187.726 477.949 187.974 478.67 188.389C479.392 188.828 478.919 189.367 478.919 189.367C477.725 190.694 473.72 190.901 472.684 190.313C472.278 190.039 472.178 189.765 472.593 189.326C473.007 188.845 474.35 189.55 474.201 189.492C474.044 189.409 474.856 189.94 475.967 189.973C477.112 189.998 477.899 189.575 477.957 189.177C478.007 188.804 476.979 188.43 476.979 188.43C473.588 187.485 472.253 188.289 472.253 188.289C470.404 189.45 471.78 190.984 471.78 190.984C474.765 194.168 479.392 192.095 479.931 191.648C480.445 191.167 480.677 190.702 480.702 189.376C480.727 188.082 480.155 187.51 480.155 187.51C479.195 186.311 476.52 186.283 475.716 186.275L475.71 186.275C474.964 186.233 473.422 186.026 473.049 185.951C472.676 185.868 472.916 185.586 472.916 185.586C473.239 185.105 480.063 184.641 480.063 184.641C480.684 184.547 480.827 184.227 480.947 183.96Z" fill="#151A20"/>
<path d="M467.933 192.593C468.223 192.991 469.243 193.148 469.724 192.792C470.18 192.444 469.964 189.11 469.964 189.11C469.964 189.11 469.799 185.412 469.749 184.707C469.693 184.028 469.452 183.695 469.241 183.405C469.234 183.394 469.226 183.383 469.218 183.373C469.019 183.066 468.704 182.676 468.19 183.124C467.73 183.544 467.664 186.115 467.609 188.304C467.606 188.403 467.604 188.5 467.601 188.596C467.543 190.818 467.643 192.236 467.933 192.593Z" fill="#151A20"/>
<path fill-rule="evenodd" clip-rule="evenodd" d="M467.585 180.827C468.397 181.175 469.359 181.333 470.76 180.868C472.949 180.13 475.08 177.975 475.105 176.242C475.147 174.517 473.206 174.509 473.206 174.509H473.148C472.808 173.439 470.81 173.588 470.81 173.588C466.722 173.92 465.379 176.756 465.18 177.502C465.047 178.149 465.106 179.111 465.902 179.824C465.695 180.385 465.823 180.656 465.901 180.821C465.91 180.841 465.919 180.859 465.926 180.877C465.993 181.084 466.349 181.722 466.747 181.681C467.021 181.64 467.228 181.449 467.585 180.827ZM466.706 178.364C466.515 178.091 466.532 177.693 466.946 177.029C467.51 176.15 468.331 175.728 469.309 175.645C468.041 176.507 467.178 177.643 466.706 178.364ZM468.372 179.243C469.318 177.834 471.307 176.109 472.593 175.918C473.955 175.68 473.581 176.899 473.527 177.075C473.523 177.088 473.521 177.096 473.521 177.096C472.385 179.409 469.823 179.509 468.372 179.243Z" fill="#151A20"/>
<path fill-rule="evenodd" clip-rule="evenodd" d="M501.663 192.767C504.548 193.422 506.712 190.619 507.483 189.276C507.931 188.472 508.172 187.394 508.18 186.374C508.18 185.221 507.865 184.152 507.177 183.663C505.129 182.245 501.829 186.747 500.378 188.978C500.162 187.842 500.933 186.399 500.933 186.399C500.933 186.399 502.168 184.26 502.343 183.828C502.517 183.397 502.616 182.502 502.401 182.411C502.21 182.319 501.878 182.61 501.878 182.61C499.117 185.097 498.728 187.85 498.728 187.85C498.462 189.334 498.769 190.379 499.217 191.109C497.683 194.384 496.928 197.244 497.127 198.936C497.31 200.221 498.238 201.15 498.794 201.349C499.358 201.589 499.457 200.909 499.457 200.909C499.913 197.41 500.709 195.08 501.663 192.767ZM505.908 185.835C506.77 184.857 506.886 185.744 506.886 185.744C507.085 187.468 505.833 188.762 505.294 189.243C504.963 189.558 503.868 190.18 502.732 190.304C503.819 188.206 505.162 186.656 505.908 185.835Z" fill="#151A20"/>
<path fill-rule="evenodd" clip-rule="evenodd" d="M460.238 193.919C465.702 192.253 466.474 188.878 466.631 186.872C466.797 184.832 465.288 179.575 456.441 175.089C456.441 175.089 446.997 170.23 439.244 172.917C439.244 172.917 438.755 172.892 438.307 173.555C438.259 173.624 438.211 173.69 438.164 173.754C437.782 174.281 437.495 174.678 437.702 175.114C437.934 175.603 439.136 175.819 440.206 175.479C440.206 175.479 440.687 175.155 440.065 174.956C439.476 174.757 439.136 174.708 439.136 174.708C439.136 174.708 438.83 174.658 439.161 174.492C439.468 174.335 443.017 173.19 449.285 174.832C455.562 176.441 464.052 181.507 463.795 186.789C463.547 192.062 455.288 192.294 455.288 192.294C455.288 192.294 453.597 192.377 451.333 191.946C451.326 191.625 451.316 191.26 451.306 190.869C451.262 189.159 451.204 186.929 451.217 185.479C454.451 185.479 457.701 186.034 457.975 186.83C457.975 186.83 458.141 187.195 457.411 187.552C456.739 187.842 456.225 188.074 456.781 188.339C456.781 188.339 457.593 188.712 458.116 188.671C458.613 188.629 459.923 188.041 460.031 186.615C460.18 185.164 458.505 183.887 456.001 183.431C454.078 183.082 453.058 182.958 451.333 183.041C451.317 181.474 451.109 179.509 450.761 179.053C450.736 179.016 450.711 178.978 450.686 178.941C450.289 178.348 449.843 177.681 449.484 178.53C449.169 179.31 448.904 181.009 448.813 183.265C446.176 183.712 443.249 184.815 442.354 185.918C441.4 187.137 442.354 188.132 442.445 188.223C442.519 188.348 444.443 191.117 448.622 193.041C448.705 193.779 448.854 194.608 449.144 195.064C449.791 196.026 450.968 195.346 451.126 195.188C451.242 195.064 451.325 194.749 451.366 194.011C453.224 194.483 456.632 195.006 460.238 193.919ZM442.959 187.651C442.959 187.651 442.354 187.029 443.232 186.598C444.028 186.233 445.77 185.752 448.788 185.545C448.783 185.828 448.781 186.096 448.778 186.363C448.766 187.55 448.755 188.727 448.572 191.225C446.64 190.537 444.609 189.425 442.959 187.651Z" fill="#151A20"/>
<path d="M523.893 187.063V185.968C523.893 185.736 523.694 185.537 523.461 185.537H518.18C518.072 183.738 517.856 181.988 517.516 180.189C517.475 179.998 517.317 179.866 517.127 179.866H515.908C515.8 179.866 515.701 179.915 515.634 179.998C515.568 180.081 515.543 180.189 515.56 180.297C515.908 182.038 516.123 183.754 516.231 185.537H511.149C510.908 185.537 510.717 185.728 510.717 185.968V187.063C510.717 187.303 510.908 187.494 511.149 187.494H516.306C516.314 187.759 516.314 187.999 516.314 188.231C516.314 189.815 516.24 191.117 516.082 192.593C516.065 192.709 516.107 192.825 516.182 192.908C516.256 192.991 516.364 193.041 516.48 193.041H517.608C517.823 193.041 518.006 192.875 518.031 192.651C518.188 191.167 518.254 189.849 518.254 188.232C518.254 188.125 518.253 188.015 518.251 187.9C518.248 187.772 518.246 187.638 518.246 187.494H523.461C523.702 187.494 523.893 187.303 523.893 187.063Z" fill="#151A20"/>
<path d="M516.809 177.286C514.115 170.661 509.563 165.015 503.643 160.952C497.581 156.798 490.476 154.6 483.096 154.6C470.891 154.6 459.565 160.662 452.807 170.819C452.733 170.927 452.716 171.068 452.758 171.192C452.799 171.325 452.898 171.416 453.023 171.457L453.968 171.781C454.026 171.797 454.084 171.806 454.134 171.806C454.308 171.806 454.474 171.714 454.573 171.573C457.674 167.013 461.87 163.224 466.712 160.604C471.712 157.9 477.375 156.466 483.088 156.466C489.995 156.466 496.653 158.506 502.357 162.353C507.921 166.109 512.241 171.358 514.853 177.519C514.927 177.701 515.11 177.825 515.309 177.825H516.436C516.569 177.825 516.693 177.759 516.76 177.651C516.843 177.543 516.859 177.411 516.809 177.286ZM454.134 171.524H454.15C454.15 171.524 454.142 171.524 454.134 171.524ZM515.077 177.676C515.101 177.693 515.126 177.709 515.151 177.718C515.126 177.701 515.101 177.693 515.077 177.676Z" fill="url(#paint1_radial_2_109)"/>
</g>
</g>
<defs>
<linearGradient id="paint0_linear_2_109" x1="269.363" y1="188.822" x2="269.363" y2="167.178" gradientUnits="userSpaceOnUse">
<stop stop-color="#0052CC"/>
<stop offset="1" stop-color="#2684FF"/>
</linearGradient>
<radialGradient id="paint1_radial_2_109" cx="0" cy="0" r="1" gradientUnits="userSpaceOnUse" gradientTransform="translate(515.75 177.784) scale(63.0257 63.0269)">
<stop offset="0.007" stop-color="#021192"/>
<stop offset="0.03" stop-color="#021096"/>
<stop offset="0.057" stop-color="#010CB4"/>
<stop offset="0.084" stop-color="#0008CE"/>
<stop offset="0.111" stop-color="#0006D7"/>
<stop offset="0.138" stop-color="#0004E1"/>
<stop offset="0.165" stop-color="#0001FA"/>
<stop offset="0.191" stop-color="#0000FE"/>
<stop offset="0.216" stop-color="#0F1EFF"/>
<stop offset="1" stop-color="#00FFFF" stop-opacity="0"/>
</radialGradient>
<clipPath id="clip0_2_109">
<rect width="156" height="52" fill="white" transform="translate(66.5 24)"/>
</clipPath>
<clipPath id="clip1_2_109">
<rect width="156" height="52" fill="white" transform="translate(66.5 24)"/>
</clipPath>
<clipPath id="clip2_2_109">
<rect width="156" height="52" fill="white" transform="translate(234.5 24)"/>
</clipPath>
<clipPath id="clip3_2_109">
<rect width="156" height="52" fill="white" transform="translate(234.5 24)"/>
</clipPath>
<clipPath id="clip4_2_109">
<rect width="156" height="42" fill="white" transform="translate(402.5 29)"/>
</clipPath>
<clipPath id="clip5_2_109">
<rect width="156" height="42" fill="white" transform="translate(402.5 29)"/>
</clipPath>
<clipPath id="clip6_2_109">
<rect width="156" height="52" fill="white" transform="translate(66.5 88)"/>
</clipPath>
<clipPath id="clip7_2_109">
<rect width="156" height="52" fill="white" transform="translate(66.5 88)"/>
</clipPath>
<clipPath id="clip8_2_109">
<rect width="156" height="52" fill="white" transform="translate(234.5 88)"/>
</clipPath>
<clipPath id="clip9_2_109">
<rect width="156" height="52" fill="white" transform="translate(234.5 88)"/>
</clipPath>
<clipPath id="clip10_2_109">
<rect width="156" height="52" fill="white" transform="translate(402.5 88)"/>
</clipPath>
<clipPath id="clip11_2_109">
<rect width="156" height="52" fill="white" transform="translate(402.5 88)"/>
</clipPath>
<clipPath id="clip12_2_109">
<rect width="156" height="52" fill="white" transform="translate(66.5 152)"/>
</clipPath>
<clipPath id="clip13_2_109">
<rect width="156" height="52" fill="white" transform="translate(66.5 152)"/>
</clipPath>
<clipPath id="clip14_2_109">
<rect width="156" height="52" fill="white" transform="translate(234.5 152)"/>
</clipPath>
<clipPath id="clip15_2_109">
<rect width="156" height="52" fill="white" transform="translate(234.5 152)"/>
</clipPath>
<clipPath id="clip16_2_109">
<rect width="156" height="52" fill="white" transform="translate(402.5 152)"/>
</clipPath>
<clipPath id="clip17_2_109">
<rect width="156" height="52" fill="white" transform="translate(402.5 152)"/>
</clipPath>
</defs>
</svg>
