<svg width="21" height="20" viewBox="0 0 21 20" fill="none" xmlns="http://www.w3.org/2000/svg">
<path d="M17.73 5.00008L10.73 10.8751C10.5858 10.9833 10.4103 11.0417 10.23 11.0417C10.0497 11.0417 9.87429 10.9833 9.73004 10.8751L2.73004 5.00008M17.73 5.00008C17.73 4.77907 17.6422 4.56711 17.486 4.41083C17.3297 4.25455 17.1177 4.16675 16.8967 4.16675H3.56337C3.34236 4.16675 3.1304 4.25455 2.97412 4.41083C2.81784 4.56711 2.73004 4.77907 2.73004 5.00008M17.73 5.00008V15.0001C17.73 15.2211 17.6422 15.4331 17.486 15.5893C17.3297 15.7456 17.1177 15.8334 16.8967 15.8334H3.56337C3.34236 15.8334 3.1304 15.7456 2.97412 15.5893C2.81784 15.4331 2.73004 15.2211 2.73004 15.0001V5.00008" stroke="white" stroke-width="1.66667"/>
</svg>
