<svg width="20" height="20" viewBox="0 0 20 20" fill="none" xmlns="http://www.w3.org/2000/svg">
<path d="M10 10.8334C10.663 10.8334 11.2989 10.57 11.7678 10.1011C12.2366 9.6323 12.5 8.99642 12.5 8.33337C12.5 7.67033 12.2366 7.03445 11.7678 6.56561C11.2989 6.09677 10.663 5.83337 10 5.83337C9.33696 5.83337 8.70107 6.09677 8.23223 6.56561C7.76339 7.03445 7.5 7.67033 7.5 8.33337C7.5 8.99642 7.76339 9.6323 8.23223 10.1011C8.70107 10.57 9.33696 10.8334 10 10.8334Z" stroke="#111827" stroke-width="1.66667"/>
<path d="M14.8333 11.615H14.825C15.4264 10.7333 15.7744 9.70346 15.831 8.63768C15.8876 7.57189 15.6508 6.51099 15.1463 5.57049C14.6417 4.62999 13.8888 3.84593 12.9695 3.30369C12.0503 2.76145 10.9998 2.48181 9.93262 2.49521C8.86542 2.50862 7.82234 2.81455 6.91697 3.37971C6.0116 3.94487 5.27863 4.74759 4.79787 5.70047C4.31711 6.65335 4.10699 7.71986 4.19038 8.78388C4.27378 9.84791 4.64749 10.8687 5.27084 11.735H5.25834L5.37584 11.8767C5.45917 11.9833 5.5425 12.0867 5.62584 12.1867L10 17.5L14.275 12.2933C14.4361 12.1189 14.5861 11.9356 14.725 11.7433L14.8333 11.615Z" stroke="#111827" stroke-width="1.66667"/>
</svg>
