<svg width="20" height="20" viewBox="0 0 20 20" fill="none" xmlns="http://www.w3.org/2000/svg">
<path d="M4.16667 15.8333V3.33333C4.16667 3.11232 4.25447 2.90036 4.41075 2.74408C4.56703 2.5878 4.77899 2.5 5.00001 2.5H15C15.221 2.5 15.433 2.5878 15.5893 2.74408C15.7455 2.90036 15.8333 3.11232 15.8333 3.33333V13.3333C15.8333 13.5543 15.7455 13.7663 15.5893 13.9226C15.433 14.0789 15.221 14.1667 15 14.1667H5.83334C5.39131 14.1667 4.96739 14.3423 4.65483 14.6548C4.34227 14.9674 4.16667 15.3913 4.16667 15.8333ZM4.16667 15.8333C4.16667 16.2754 4.34227 16.6993 4.65483 17.0118C4.96739 17.3244 5.39131 17.5 5.83334 17.5H15.8333M7.50001 14.1667V2.5M14.1667 17.5V14.1667" stroke="#4B5563" stroke-width="1.66667"/>
</svg>
