<svg width="20" height="20" viewBox="0 0 20 20" fill="none" xmlns="http://www.w3.org/2000/svg">
<path d="M5 3.33337H15M5 3.33337V16.6667M5 3.33337H4.16667M15 3.33337V16.6667M15 3.33337H15.8333M5 16.6667H15M5 16.6667H3.33333M15 16.6667H16.6667M7.5 5.83337H8.33333V6.66671H7.5V5.83337ZM11.6667 5.83337H12.5V6.66671H11.6667V5.83337ZM7.5 9.16671H8.33333V10H7.5V9.16671ZM11.6667 9.16671H12.5V10H11.6667V9.16671ZM9.16667 12.5H10.8333C11.0543 12.5 11.2663 12.5878 11.4226 12.7441C11.5789 12.9004 11.6667 13.1124 11.6667 13.3334V16.6667H8.33333V13.3334C8.33333 13.1124 8.42113 12.9004 8.57741 12.7441C8.73369 12.5878 8.94565 12.5 9.16667 12.5Z" stroke="#111827" stroke-width="1.66667"/>
</svg>
