<svg width="23" height="22" viewBox="0 0 23 22" fill="none" xmlns="http://www.w3.org/2000/svg">
<path fill-rule="evenodd" clip-rule="evenodd" d="M20.122 7.36701C20.0365 6.7157 19.7878 6.09655 19.399 5.56701C18.9174 5.08081 18.2634 4.80414 17.579 4.79701C15.043 4.61401 11.231 4.61401 11.231 4.61401C11.231 4.61401 7.42103 4.61401 4.88103 4.79801C4.1975 4.80539 3.54438 5.08166 3.06303 5.56701C2.67303 6.09601 2.42303 6.71601 2.33803 7.36701C2.22549 8.34312 2.1644 9.32448 2.15503 10.307V11.682C2.1637 12.6647 2.2247 13.6443 2.33803 14.621C2.42503 15.273 2.67103 15.895 3.05703 16.428C3.61111 16.9183 4.32227 17.1942 5.06203 17.206C6.51203 17.344 11.232 17.389 11.232 17.389C11.232 17.389 15.046 17.389 17.582 17.206C18.2664 17.1989 18.9204 16.9222 19.402 16.436C19.79 15.906 20.038 15.286 20.123 14.634C20.2364 13.6587 20.2977 12.679 20.307 11.695V10.305C20.2969 9.32311 20.2352 8.34243 20.122 7.36701ZM9.40403 13.375V8.22301L14.354 10.807L9.40403 13.375Z" fill="white"/>
</svg>
