<svg width="20" height="20" viewBox="0 0 20 20" fill="none" xmlns="http://www.w3.org/2000/svg">
<path d="M11.588 2.76294L14.694 6.66694M16.667 9.99994H12.5C12.2811 9.99981 12.0644 10.0428 11.8621 10.1265C11.6599 10.2101 11.4761 10.3328 11.3213 10.4875C11.1665 10.6423 11.0437 10.826 10.9599 11.0282C10.8761 11.2304 10.833 11.4471 10.833 11.6659V12.4999C10.8333 12.9419 11.009 13.3656 11.3216 13.678C11.6342 13.9904 12.0581 14.1659 12.5 14.1659H16.667M16.667 9.99994C16.8879 9.99994 17.0998 10.0877 17.256 10.2439C17.4122 10.4001 17.5 10.612 17.5 10.8329V13.3329C17.5 13.5539 17.4122 13.7657 17.256 13.922C17.0998 14.0782 16.8879 14.1659 16.667 14.1659M16.667 9.99994V7.49994C16.667 7.39046 16.6454 7.28206 16.6035 7.18093C16.5616 7.0798 16.5001 6.98793 16.4227 6.91057C16.3452 6.8332 16.2533 6.77186 16.1521 6.73006C16.0509 6.68826 15.9425 6.66681 15.833 6.66694H3.333C3.22361 6.66694 3.11529 6.68849 3.01422 6.73035C2.91316 6.77221 2.82133 6.83357 2.74398 6.91092C2.66663 6.98827 2.60527 7.0801 2.56341 7.18116C2.52155 7.28223 2.5 7.39055 2.5 7.49994V16.6669C2.5 16.7763 2.52155 16.8846 2.56341 16.9857C2.60527 17.0868 2.66663 17.1786 2.74398 17.256C2.82133 17.3333 2.91316 17.3947 3.01422 17.4365C3.11529 17.4784 3.22361 17.4999 3.333 17.4999H15.833C15.9426 17.5001 16.0511 17.4786 16.1523 17.4367C16.2536 17.3949 16.3456 17.3334 16.423 17.256C16.5005 17.1785 16.5619 17.0865 16.6038 16.9853C16.6456 16.884 16.6671 16.7755 16.667 16.6659V14.1659M11.361 6.66594L8.254 2.76394L3.627 6.66694L11.361 6.66594Z" stroke="#4B5563" stroke-width="2"/>
</svg>
