<svg width="23" height="22" viewBox="0 0 23 22" fill="none" xmlns="http://www.w3.org/2000/svg">
<path d="M15.8134 1.83325H6.64672C4.11541 1.83325 2.06339 3.88528 2.06339 6.41659V15.5833C2.06339 18.1146 4.11541 20.1666 6.64672 20.1666H15.8134C18.3447 20.1666 20.3967 18.1146 20.3967 15.5833V6.41659C20.3967 3.88528 18.3447 1.83325 15.8134 1.83325Z" stroke="#F9FAFB" stroke-width="1.83333" stroke-linecap="round" stroke-linejoin="round"/>
<path d="M16.2717 5.95825H16.2809M14.8967 10.4224C15.0098 11.1853 14.8795 11.9645 14.5243 12.649C14.1691 13.3336 13.6071 13.8887 12.9182 14.2355C12.2293 14.5822 11.4486 14.7029 10.6872 14.5804C9.92574 14.4578 9.22232 14.0983 8.67697 13.553C8.13163 13.0076 7.77213 12.3042 7.6496 11.5428C7.52707 10.7813 7.64776 10.0007 7.9945 9.31176C8.34124 8.62287 8.89637 8.06085 9.58094 7.70564C10.2655 7.35043 11.0446 7.22012 11.8075 7.33325C12.5857 7.44865 13.3062 7.81126 13.8624 8.36753C14.4187 8.92381 14.7813 9.64424 14.8967 10.4224Z" stroke="#F9FAFB" stroke-width="1.83333" stroke-linecap="round" stroke-linejoin="round"/>
</svg>
