<svg width="20" height="20" viewBox="0 0 20 20" fill="none" xmlns="http://www.w3.org/2000/svg">
<path d="M12.5109 9.1509L12.5655 9.20272C12.72 9.36489 12.8232 9.56912 12.862 9.78974C12.9008 10.0104 12.8735 10.2375 12.7836 10.4427C12.72 10.5864 12.6282 10.7154 12.5127 10.8218L12.51 10.8236L7.77 15.2627L7.76182 15.27C7.69892 15.3342 7.61511 15.3738 7.52554 15.3816C7.43597 15.3895 7.34657 15.3649 7.27352 15.3125C7.20046 15.2601 7.14857 15.1833 7.12725 15.096C7.10593 15.0086 7.11658 14.9165 7.15727 14.8364C7.17887 14.7905 7.20984 14.7496 7.24818 14.7164L7.25546 14.7091L11.9464 10.3182L12.3009 9.98545L11.9464 9.65363L7.26091 5.26727C7.20978 5.21513 7.17476 5.14936 7.16004 5.07784C7.14531 5.00631 7.15151 4.93206 7.17788 4.86396C7.20426 4.79587 7.24969 4.73682 7.30876 4.69387C7.36782 4.65093 7.438 4.62591 7.51091 4.62181C7.60737 4.61711 7.70188 4.65003 7.77455 4.71363L12.5109 9.1509Z" stroke="#111827" stroke-width="1.81818"/>
</svg>
