<svg width="20" height="20" viewBox="0 0 20 20" fill="none" xmlns="http://www.w3.org/2000/svg">
<path d="M4.16667 8.33333V16.6667C4.16667 16.8877 4.25446 17.0996 4.41074 17.2559C4.56702 17.4122 4.77899 17.5 5 17.5H8.33333V13.3333C8.33333 13.1123 8.42113 12.9004 8.57741 12.7441C8.73369 12.5878 8.94565 12.5 9.16667 12.5H10.8333C11.0543 12.5 11.2663 12.5878 11.4226 12.7441C11.5789 12.9004 11.6667 13.1123 11.6667 13.3333V17.5H15C15.221 17.5 15.433 17.4122 15.5893 17.2559C15.7455 17.0996 15.8333 16.8877 15.8333 16.6667V8.33333M2.5 10L10 2.5L17.5 10" stroke="#4B5563" stroke-width="1.66667"/>
</svg>
