<svg width="1560" height="412" viewBox="0 0 1560 412" fill="none" xmlns="http://www.w3.org/2000/svg">
<g opacity="0.3" clip-path="url(#clip0_2_231)">
<g clip-path="url(#clip1_2_231)">
<g clip-path="url(#clip2_2_231)">
<g opacity="0.3">
<path fill-rule="evenodd" clip-rule="evenodd" d="M-64.9863 254.457V351.906L19.5824 400.623L104.151 351.906V254.457L19.5824 205.74L-64.9863 254.457ZM-64.8304 254.547L19.5824 205.92L103.995 254.547V351.817L19.5824 400.443L-64.8304 351.817V254.547Z" fill="#151A20"/>
<path fill-rule="evenodd" clip-rule="evenodd" d="M610.94 254.457V351.906L695.509 400.623L780.078 351.906V254.457L695.509 205.74L610.94 254.457ZM611.096 254.547L695.509 205.92L779.922 254.547V351.817L695.509 400.443L611.096 351.817V254.547Z" fill="#151A20"/>
<path fill-rule="evenodd" clip-rule="evenodd" d="M272.977 254.457V351.906L357.546 400.623L442.115 351.906V254.457L357.546 205.74L272.977 254.457ZM273.133 254.547L357.546 205.92L441.959 254.547V351.817L357.546 400.443L273.133 351.817V254.547Z" fill="#151A20"/>
<path fill-rule="evenodd" clip-rule="evenodd" d="M948.904 254.457V351.906L1033.47 400.623L1118.04 351.906V254.457L1033.47 205.74L948.904 254.457ZM949.06 254.547L1033.47 205.92L1117.89 254.547V351.817L1033.47 400.443L949.06 351.817V254.547Z" fill="#151A20"/>
<path fill-rule="evenodd" clip-rule="evenodd" d="M1286.86 254.457V351.906L1371.44 400.623L1456 351.906V254.457L1371.44 205.74L1286.86 254.457ZM1287.02 254.547L1371.44 205.92L1455.85 254.547V351.817L1371.44 400.443L1287.02 351.817V254.547Z" fill="#151A20"/>
<path fill-rule="evenodd" clip-rule="evenodd" d="M103.995 254.457V351.906L188.564 400.623L273.133 351.906V254.457L188.564 205.74L103.995 254.457ZM104.151 254.547L188.564 205.92L272.977 254.547V351.817L188.564 400.443L104.151 351.817V254.547Z" fill="#151A20"/>
<path fill-rule="evenodd" clip-rule="evenodd" d="M779.922 254.457V351.906L864.491 400.623L949.06 351.906V254.457L864.491 205.74L779.922 254.457ZM780.078 254.547L864.491 205.92L948.904 254.547V351.817L864.491 400.443L780.078 351.817V254.547Z" fill="#151A20"/>
<path fill-rule="evenodd" clip-rule="evenodd" d="M441.959 254.457V351.906L526.528 400.623L611.096 351.906V254.457L526.528 205.74L441.959 254.457ZM442.115 254.547L526.528 205.92L610.94 254.547V351.817L526.528 400.443L442.115 351.817V254.547Z" fill="#151A20"/>
<path fill-rule="evenodd" clip-rule="evenodd" d="M1117.89 254.457V351.906L1202.45 400.623L1287.02 351.906V254.457L1202.45 205.74L1117.89 254.457ZM1118.04 254.547L1202.45 205.92L1286.86 254.547V351.817L1202.45 400.443L1118.04 351.817V254.547Z" fill="#151A20"/>
<path fill-rule="evenodd" clip-rule="evenodd" d="M1455.85 254.457V351.906L1540.42 400.623L1624.99 351.906V254.457L1540.42 205.74L1455.85 254.457ZM1456 254.547L1540.42 205.92L1624.83 254.547V351.817L1540.42 400.443L1456 351.817V254.547Z" fill="#151A20"/>
<path fill-rule="evenodd" clip-rule="evenodd" d="M-64.9863 -134.951V-37.5002L19.5824 11.2164L104.151 -37.5002V-134.951L19.5824 -183.668L-64.9863 -134.951ZM-64.8304 -134.861L19.5824 -183.488L103.995 -134.861V-37.5903L19.5824 11.0365L-64.8304 -37.5903V-134.861Z" fill="#151A20"/>
<path fill-rule="evenodd" clip-rule="evenodd" d="M610.94 -134.951V-37.5002L695.509 11.2164L780.078 -37.5002V-134.951L695.509 -183.668L610.94 -134.951ZM611.096 -134.86L695.509 -183.488L779.922 -134.86V-37.5903L695.509 11.0366L611.096 -37.5903V-134.86Z" fill="#151A20"/>
<path fill-rule="evenodd" clip-rule="evenodd" d="M272.977 -134.951V-37.5002L357.546 11.2164L442.115 -37.5002V-134.951L357.546 -183.668L272.977 -134.951ZM273.133 -134.861L357.546 -183.488L441.959 -134.861V-37.5903L357.546 11.0366L273.133 -37.5903V-134.861Z" fill="#151A20"/>
<path fill-rule="evenodd" clip-rule="evenodd" d="M948.904 -134.951V-37.5003L1033.47 11.2163L1118.04 -37.5003V-134.951L1033.47 -183.666L948.904 -134.951ZM949.06 -134.86L1033.47 -183.488L1117.89 -134.86V-37.5903L1033.47 11.0366L949.06 -37.5903V-134.86Z" fill="#151A20"/>
<path fill-rule="evenodd" clip-rule="evenodd" d="M1286.86 -134.951V-37.5003L1371.44 11.2164L1456 -37.5002V-134.951L1371.44 -183.666L1286.86 -134.951ZM1287.02 -134.86L1371.44 -183.487L1455.85 -134.86V-37.5902L1371.44 11.0366L1287.02 -37.5903V-134.86Z" fill="#151A20"/>
<path fill-rule="evenodd" clip-rule="evenodd" d="M103.995 -134.951V-37.5002L188.564 11.2164L273.133 -37.5002V-134.951L188.564 -183.668L103.995 -134.951ZM104.151 -134.861L188.564 -183.488L272.977 -134.861V-37.5903L188.564 11.0366L104.151 -37.5903V-134.861Z" fill="#151A20"/>
<path fill-rule="evenodd" clip-rule="evenodd" d="M779.922 -134.951V-37.5003L864.491 11.2163L949.06 -37.5003V-134.951L864.491 -183.666L779.922 -134.951ZM780.078 -134.86L864.491 -183.488L948.904 -134.86V-37.5903L864.491 11.0366L780.078 -37.5903V-134.86Z" fill="#151A20"/>
<path fill-rule="evenodd" clip-rule="evenodd" d="M441.959 -134.951V-37.5002L526.528 11.2164L611.096 -37.5002V-134.951L526.528 -183.668L441.959 -134.951ZM442.115 -134.861L526.528 -183.488L610.94 -134.86V-37.5903L526.528 11.0366L442.115 -37.5903V-134.861Z" fill="#151A20"/>
<path fill-rule="evenodd" clip-rule="evenodd" d="M1117.89 -134.951V-37.5003L1202.45 11.2163L1287.02 -37.5003V-134.951L1202.45 -183.666L1117.89 -134.951ZM1118.04 -134.86L1202.45 -183.487L1286.86 -134.86V-37.5903L1202.45 11.0366L1118.04 -37.5903V-134.86Z" fill="#151A20"/>
<path fill-rule="evenodd" clip-rule="evenodd" d="M1455.85 -134.951V-37.5002L1540.42 11.2164L1624.99 -37.5002V-134.951L1540.42 -183.666L1455.85 -134.951ZM1456 -134.86L1540.42 -183.487L1624.83 -134.86V-37.5902L1540.42 11.0366L1456 -37.5902V-134.86Z" fill="#151A20"/>
<path fill-rule="evenodd" clip-rule="evenodd" d="M-64.9863 449.16V546.61L19.5824 595.326L104.151 546.61V449.16L19.5824 400.443L-64.9863 449.16ZM-64.8304 449.25L19.5824 400.623L103.995 449.25V546.52L19.5824 595.147L-64.8304 546.52V449.25Z" fill="#151A20"/>
<path fill-rule="evenodd" clip-rule="evenodd" d="M610.94 449.16V546.61L695.509 595.326L780.078 546.61V449.16L695.509 400.443L610.94 449.16ZM611.096 449.25L695.509 400.623L779.922 449.25V546.52L695.509 595.148L611.096 546.52V449.25Z" fill="#151A20"/>
<path fill-rule="evenodd" clip-rule="evenodd" d="M272.977 449.16V546.61L357.546 595.326L442.115 546.61V449.16L357.546 400.443L272.977 449.16ZM273.133 449.25L357.546 400.623L441.959 449.25V546.52L357.546 595.148L273.133 546.52V449.25Z" fill="#151A20"/>
<path fill-rule="evenodd" clip-rule="evenodd" d="M948.904 449.16V546.61L1033.47 595.326L1118.04 546.61V449.16L1033.47 400.443L948.904 449.16ZM949.06 449.25L1033.47 400.623L1117.89 449.25V546.52L1033.47 595.148L949.06 546.52V449.25Z" fill="#151A20"/>
<path fill-rule="evenodd" clip-rule="evenodd" d="M1286.86 449.16V546.61L1371.44 595.326L1456 546.61V449.16L1371.44 400.443L1286.86 449.16ZM1287.02 449.25L1371.44 400.623L1455.85 449.25V546.52L1371.44 595.148L1287.02 546.52V449.25Z" fill="#151A20"/>
<path fill-rule="evenodd" clip-rule="evenodd" d="M103.995 449.16V546.61L188.564 595.326L273.133 546.61V449.16L188.564 400.443L103.995 449.16ZM104.151 449.25L188.564 400.623L272.977 449.25V546.52L188.564 595.147L104.151 546.52V449.25Z" fill="#151A20"/>
<path fill-rule="evenodd" clip-rule="evenodd" d="M779.922 449.16V546.61L864.491 595.326L949.06 546.61V449.16L864.491 400.443L779.922 449.16ZM780.078 449.25L864.491 400.623L948.904 449.25V546.52L864.491 595.148L780.078 546.52V449.25Z" fill="#151A20"/>
<path fill-rule="evenodd" clip-rule="evenodd" d="M441.959 449.16V546.61L526.528 595.326L611.096 546.61V449.16L526.528 400.443L441.959 449.16ZM442.115 449.25L526.528 400.623L610.94 449.25V546.52L526.528 595.148L442.115 546.52V449.25Z" fill="#151A20"/>
<path fill-rule="evenodd" clip-rule="evenodd" d="M1117.89 449.16V546.61L1202.45 595.326L1287.02 546.61V449.16L1202.45 400.443L1117.89 449.16ZM1118.04 449.25L1202.45 400.623L1286.86 449.25V546.52L1202.45 595.148L1118.04 546.52V449.25Z" fill="#151A20"/>
<path fill-rule="evenodd" clip-rule="evenodd" d="M1455.85 449.16V546.61L1540.42 595.326L1624.99 546.61V449.16L1540.42 400.443L1455.85 449.16ZM1456 449.25L1540.42 400.623L1624.83 449.25V546.52L1540.42 595.148L1456 546.52V449.25Z" fill="#151A20"/>
<path fill-rule="evenodd" clip-rule="evenodd" d="M-64.9863 59.7531V157.203L19.5824 205.92L104.151 157.203V59.7531L19.5824 11.0365L-64.9863 59.7531ZM-64.8304 59.8431L19.5824 11.2163L103.995 59.8431V157.113L19.5824 205.74L-64.8304 157.113V59.8431Z" fill="#151A20"/>
<path fill-rule="evenodd" clip-rule="evenodd" d="M610.94 59.7531V157.203L695.509 205.92L780.078 157.203V59.7531L695.509 11.0366L610.94 59.7531ZM611.096 59.8431L695.509 11.2163L779.922 59.8432V157.113L695.509 205.74L611.096 157.113V59.8431Z" fill="#151A20"/>
<path fill-rule="evenodd" clip-rule="evenodd" d="M272.977 59.7531V157.203L357.546 205.92L442.115 157.203V59.7531L357.546 11.0366L272.977 59.7531ZM273.133 59.8431L357.546 11.2163L441.959 59.8431V157.113L357.546 205.74L273.133 157.113V59.8431Z" fill="#151A20"/>
<path fill-rule="evenodd" clip-rule="evenodd" d="M948.904 59.7531V157.203L1033.47 205.92L1118.04 157.203V59.7531L1033.47 11.0366L948.904 59.7531ZM949.06 59.8432L1033.47 11.2163L1117.89 59.8432V157.113L1033.47 205.74L949.06 157.113V59.8432Z" fill="#151A20"/>
<path fill-rule="evenodd" clip-rule="evenodd" d="M1286.86 59.7531V157.203L1371.44 205.92L1456 157.203V59.7532L1371.44 11.0366L1286.86 59.7531ZM1287.02 59.8432L1371.44 11.2165L1455.85 59.8432V157.113L1371.44 205.74L1287.02 157.113V59.8432Z" fill="#151A20"/>
<path fill-rule="evenodd" clip-rule="evenodd" d="M103.995 59.7531V157.203L188.564 205.92L273.133 157.203V59.7531L188.564 11.0366L103.995 59.7531ZM104.151 59.8431L188.564 11.2163L272.977 59.8431V157.113L188.564 205.74L104.151 157.113V59.8431Z" fill="#151A20"/>
<path fill-rule="evenodd" clip-rule="evenodd" d="M779.922 59.7531V157.203L864.491 205.92L949.06 157.203V59.7531L864.491 11.0366L779.922 59.7531ZM780.078 59.8432L864.491 11.2163L948.904 59.8432V157.113L864.491 205.74L780.078 157.113V59.8432Z" fill="#151A20"/>
<path fill-rule="evenodd" clip-rule="evenodd" d="M441.959 59.7531V157.203L526.528 205.92L611.096 157.203V59.7531L526.528 11.0366L441.959 59.7531ZM442.115 59.8431L526.528 11.2163L610.94 59.8431V157.113L526.528 205.74L442.115 157.113V59.8431Z" fill="#151A20"/>
<path fill-rule="evenodd" clip-rule="evenodd" d="M1117.89 59.7531V157.203L1202.45 205.92L1287.02 157.203V59.7531L1202.45 11.0366L1117.89 59.7531ZM1118.04 59.8432L1202.45 11.2163L1286.86 59.8432V157.113L1202.45 205.74L1118.04 157.113V59.8432Z" fill="#151A20"/>
<path fill-rule="evenodd" clip-rule="evenodd" d="M1455.85 59.7532V157.203L1540.42 205.92L1624.99 157.203V59.7532L1540.42 11.0366L1455.85 59.7532ZM1456 59.8432L1540.42 11.2165L1624.83 59.8432V157.113L1540.42 205.74L1456 157.113V59.8432Z" fill="#151A20"/>
</g>
</g>
</g>
</g>
<defs>
<clipPath id="clip0_2_231">
<rect width="1560" height="411.66" fill="white"/>
</clipPath>
<clipPath id="clip1_2_231">
<rect width="1560" height="411.66" fill="white"/>
</clipPath>
<clipPath id="clip2_2_231">
<rect width="1559.97" height="411.66" fill="white" transform="translate(0.0126343)"/>
</clipPath>
</defs>
</svg>
